<svg xmlns="http://www.w3.org/2000/svg" viewBox="0 0 1000 1280" width="1000" height="1280">
	<style>
		tspan { white-space:pre }
		.shp0 { fill: #000000 } 
	</style>
	<g id="Layer">
		<path id="Layer" class="shp0" d="M589.7 18C588.8 21.3 585.7 34 583 46.4C575.6 79.3 575.7 79.2 558.1 106C546.8 123.2 530.8 154.3 528.4 163.5C527.2 168.3 527 172.9 527.5 186C528.8 220 532.6 243.1 543.4 282.4C548.6 301.3 551 308 555.5 316.9C559.9 325.7 562.5 333.2 568 352.3C585.3 413.1 587 423.6 587 470.5C587 497.1 587.8 501.6 590 487C590.7 482.9 592.8 473.2 594.8 465.5C598.4 451.8 598.5 451.1 598.4 434C598.3 413.5 598.9 416.1 582.7 365C567 315 565.5 309.7 562 288.2C560.9 281.4 558.8 271.3 557.3 265.7C555.2 257.8 554.4 252.1 553.8 240C553.5 231.5 553.1 223.8 553.2 223C553.2 222.2 553.5 206.6 553.9 188.5L554.5 155.5L557.3 149.7C558.8 146.5 560.4 141 560.9 137.5C561.6 132.6 563.8 127.1 569.9 114.8C580.9 92.4 585.7 76.2 589.4 49.2C591 37.6 592.7 12 591.8 12C591.5 12 590.6 14.7 589.7 18Z" />
		<path id="Layer" class="shp0" d="M528.7 68.7C524.8 77 524 79.8 523.5 86.5C523.2 90.9 522.2 98.5 521.2 103.5C519 115 516.4 118 508.6 118C505.8 118 502.9 117.6 502.2 117.2C500.4 116 497.4 102.7 495.9 89.2C495.2 83.1 494.4 78 494 78C493.7 78 492.6 80.4 491.7 83.3C490.8 86.2 488.1 91.7 485.8 95.5C483.5 99.3 480.1 105.8 478.2 110L474.7 117.5L473.9 137.5C473.5 148.5 473.4 158.6 473.7 160C475.2 167 482.3 184.3 489.9 199.6C497.9 215.4 514.9 244.4 515.8 243.6C516 243.4 515.1 237.4 513.9 230.3C508.6 200.2 513 148.5 522.3 130C524.2 126.3 531 115.7 537.3 106.6C543.7 97.4 551.6 84.5 555 77.7C558.3 71 560.3 66.6 559.3 68C554.7 74.5 551.3 77.2 544.7 79.6C540.9 80.9 537.4 81.7 536.8 81.4C536.1 80.9 535.9 78.1 536.3 73.5C536.9 66.7 535.8 59 534.1 59C533.7 59 531.3 63.4 528.7 68.7Z" />
		<path id="Layer" class="shp0" d="M439.2 82.5C436.4 94.6 435.5 104.6 435.5 125C435.5 143.4 435.9 148.1 437.8 157.7C442 178.4 449.9 197.8 459.4 210.8C462 214.3 464.8 218.8 465.7 220.8C466.6 222.8 468 226.1 468.8 228.1C469.7 230.1 471.3 232.1 472.4 232.6C475 233.8 498.9 271.6 505.6 285.1C515.2 304.5 533.7 357.1 540.8 385.5C549.4 419.4 552.3 440.7 552.4 470C552.5 491.1 552 496.7 546.4 548.5C544.7 564.2 542.2 576.7 537.9 591.3C536.2 596.7 534.3 606 533.4 611.8C532.4 619.5 531 624.7 528.4 630.5C526.4 634.9 523.5 642.7 521.8 647.8C518.5 658.2 515.5 664 513.4 664C511.4 664 511.5 662.9 516 644.8C518.3 635.8 520.7 622.9 521.4 616C522.3 608.2 523.6 601.7 524.9 598.8C528.7 589.9 530.8 578.4 533.5 550.5C535.5 529.5 535.4 522.5 533.1 514.9C530.7 506.9 530.4 504.8 528.5 486.5C526.5 467.8 526.1 466 515 428.8C501.3 383.1 492.8 366.9 471.3 346C462.1 337 458.4 334 454.5 332.6C451.8 331.6 442.9 327.9 434.9 324.4C421.8 318.7 419.6 318 413.7 318C406.5 318 396.5 320.7 388 325C381.6 328.2 366.3 343.4 363.1 349.8C361.9 352.1 358.7 363.9 355.9 376C353.1 388.1 350 400.6 348.9 403.7C347.4 408.1 347 412.1 347 421.6C347 428.9 346.6 434.1 346 434.5C344.8 435.3 339.8 432.3 333.4 427C330.8 424.9 327.1 422.9 325.1 422.5C323.1 422.1 317.7 419.6 313 416.9C305.1 412.4 299 410.7 299 413C299 413.9 308.2 418.5 325.8 426.2C330.9 428.5 334.9 430.8 334.7 431.4C334.5 432 329.7 433.1 324 433.9C312.9 435.4 312.6 436.8 323.2 436.9C330 437 332 437.7 332 439.9C332 440.8 330.8 447 329.4 453.8C327.9 460.5 326.9 466.3 327.2 466.6C327.6 466.9 332.2 464 337.6 460.1C343 456.2 348.2 453 349.2 453C350.9 453 355.6 456.9 376 475.4C381.2 480.1 385.5 483.8 385.7 483.6C385.8 483.5 383.2 475.1 379.9 465.1C376.2 454 374.1 446.5 374.7 445.9C375.3 445.3 377.5 445.6 380.4 446.6C383 447.5 385.3 448 385.6 447.8C385.8 447.5 381.1 444 375 440C368.9 436 364.1 432.2 364.3 431.6C364.8 430.1 374.7 428.1 385.5 427.3C392 426.9 395.2 426.2 396.9 424.9C398.4 423.6 400.9 423 404 423C407.3 423 410.2 422.2 413.1 420.5L417.5 418L413.5 418.7C411.3 419 408.3 419.9 406.8 420.6C405.3 421.4 402.5 422 400.6 422C398.7 422 395.5 422.9 393.6 424.1C390.5 425.9 388.8 426.1 378.3 425.8C366.8 425.5 366.4 425.6 362.5 428.2C360.3 429.8 358 431 357.4 431C354.3 431 354.5 393.6 357.6 378C360.5 363.7 368.8 347.5 377.9 338.3C385.1 331.1 389.8 328.5 403.7 324C413.2 320.9 415.8 320.4 418.1 321.2C419.7 321.7 421.3 322.6 421.6 323.1C421.9 323.6 424.1 324 426.6 324C429.5 324 431.6 324.6 432.8 325.8C433.9 326.9 437.2 329.3 440.2 331.3C449.3 337.4 467.2 358.6 478.2 376.2C485.2 387.4 489.8 397.7 495.8 415C498.6 423 503.3 435.8 506.4 443.6C518.2 473.9 520.4 485.5 519.5 515.5C518.9 535.3 519 538.5 520.9 548C524.1 564.1 523.7 571.1 518.4 594.9C512.4 621.8 509.1 631.8 502.9 642.1C494.7 655.5 493.2 659.2 490.6 671.2C489.3 677.4 486.8 686.1 485 690.5C482.2 697.4 481.7 700.3 480.9 712.2C480.5 719.8 479.1 733.3 477.9 742.2C475.4 762.2 475.1 775.7 476.8 815C478.1 847.2 479.4 858.7 483.4 874.7C484.8 880.1 487.3 892.8 489 903C494 932 496.2 940.5 503.3 956.5C505.2 960.9 508.4 969 510.3 974.5C512.2 980 515.3 986.8 517.2 989.6C519.8 993.5 521 996.6 521.9 1002.4C522.6 1006.6 524.7 1014.6 526.6 1020.2C528.5 1025.8 530 1030.8 530 1031.2C530 1033.7 526 1030.8 516.2 1021.2C506 1011.3 505.1 1010.1 504.1 1005.2C502.5 997.4 500.6 994.4 491.3 984.8C486.6 980.1 481.4 974 479.6 971.3C477.3 967.7 473.7 964.6 465 958.8C443.9 944.7 433.6 939.1 414 931C387.6 920 386.3 919.5 372 916C365.1 914.4 356.2 912.1 352.2 911C344.4 908.9 314 903.7 313.3 904.3C313.1 904.6 318.7 906.2 325.7 907.9C340.2 911.6 345.5 913.6 369.9 924.9C388.6 933.5 397.7 938.9 409.2 947.7C422.8 958.2 450.4 981.6 461.7 992.2C467.8 998 477.5 1006.4 483.2 1010.8C497.4 1021.8 503.7 1028.7 511.4 1041.3C527.3 1067.2 531.9 1080.7 537.5 1118C538.9 1127.6 541.2 1141.3 542.5 1148.5C547 1172.3 548.9 1186.3 550.5 1205.5C551.3 1215.9 553.6 1233.9 555.5 1245.5C557.4 1257.1 559.2 1269.5 559.6 1273.2L560.3 1280L594.1 1280L628 1280L628 1269.2C628 1263.3 627.1 1250.6 626 1241C624.5 1227.6 624 1216.8 624 1194.7C624 1165.9 624 1165.9 620.5 1148.2C618.6 1138.5 615.9 1123.7 614.5 1115.3C610.7 1092.7 599.2 1049.8 590 1024C587.3 1016.6 582.6 1000.4 579.5 988C573.3 963 559.1 914.5 555.5 906C554.2 903 552.7 897.6 552 894C551.4 890.4 549.8 883.2 548.5 878C541.4 849.5 532 786.2 529.8 752.6C528.8 737.1 528.9 731.5 530.4 713.5C535.7 648.2 541 621.2 554.4 592.5C558.9 582.7 560.1 579 560.9 572C561.5 567.3 562.9 560.7 564 557.2C580 506.8 570.1 398.9 543.2 331.8C539.6 323 522.9 289.3 516.2 277.5C513.7 273.1 508 264.2 503.4 257.7C493.4 243.4 487.9 232.9 476.2 205.5C455.2 156.4 445.3 123.1 441.7 90L440.4 77.5L439.2 82.5Z" />
		<path id="Layer" class="shp0" d="M643.1 91.7C640.1 93.5 634.5 96.1 630.6 97.6C626.7 99.1 619.6 101.8 614.8 103.6C607.7 106.4 604.7 107 598.5 107L591 107L588.4 112.1C585.9 117.1 585.8 119.6 588.2 117.2C588.9 116.5 590.8 116 592.6 116C594.3 116 596.9 115.1 598.3 114C601.2 111.7 608.5 111.4 621.7 113C637.6 115 650.5 120.6 663 131.1L668.8 135.9L668.3 132.1C667.8 128.2 671.7 112.5 674.7 106.7L676.1 104L668.5 104C661.3 104 660.9 103.9 656.9 100.3C654.7 98.3 651.9 94.8 650.7 92.5L648.5 88.4L643.1 91.7Z" />
		<path id="Layer" class="shp0" d="M606.5 129.1C591.8 131.3 581.7 137.6 575.7 148.5C573.3 152.8 570.9 160 570.4 164C570 167.1 570.1 167.3 571.2 165.5C571.9 164.4 574.8 161.2 577.6 158.5C580.4 155.7 583.4 152.1 584.3 150.4C585.5 148.1 588.3 146.3 596.2 142.5C609.4 136.1 614.5 135.9 629.8 140.9C641.6 144.7 648.6 149.1 658 158.2C663.2 163.2 665.2 166.1 667.9 172.5C671.9 181.9 672.8 189 670.8 194L669.3 197.5L679.3 197.2C684.7 197 689.9 197.2 690.9 197.5C692.3 198.1 692.3 198.3 690.6 199.5C688.8 200.8 688.8 201.1 690.4 204.4C691.3 206.3 692 208.6 692 209.7C692 211 692.6 210.6 694 208.2C695.1 206.5 696.8 205 697.7 205C698.7 205 703.8 206.1 709 207.5C714.2 208.9 718.9 210 719.5 210C720 210 717.6 207.1 714.1 203.6C710.7 200.1 707.3 196.2 706.6 194.9C705.6 192.9 704.5 192.4 699.6 192C696.3 191.7 693.5 191 693.3 190.5C693 189.6 705.3 181.8 713.7 177.6C715.4 176.7 717.1 175.1 717.5 174C717.9 172.9 719.9 169.9 722.1 167.4C728.6 159.9 726.8 158 717.4 162.4C714.6 163.7 712 165.3 711.6 165.8C711.3 166.4 708.6 167.6 705.7 168.4C702.5 169.3 699.3 171.1 697.5 173.1C695.8 174.8 693.5 176.6 692.2 177.1C690 178 689.2 179.3 685.6 189.3C684.4 192.5 683.3 194 682.3 193.8C681.4 193.6 679 188.5 676.3 181C671.1 166.6 665.9 158.2 656.8 149.4C649.6 142.4 634 130.3 630.3 128.9C627.4 127.8 614.8 127.9 606.5 129.1Z" />
		<path id="Layer" class="shp0" d="M680.6 141.6C678.5 142.3 676.4 142.7 675.9 142.4C674.3 141.4 675 143.3 677.7 147.4C679.2 149.7 680.5 151.6 680.6 151.8C680.6 151.9 681.4 151.8 682.2 151.5C683.1 151.1 684.6 148.8 685.6 146.2C686.7 143.6 687.7 141.2 687.8 140.8C688.3 139.6 684.9 140 680.6 141.6Z" />
		<path id="Layer" class="shp0" d="M606.2 156C598.5 158.8 594.4 161.6 590 167.1C585.5 172.8 573.3 197.4 571.4 204.5C569.8 210.4 569.6 237 571 247.5C572.8 260.5 575.2 273 575.9 273C576.3 273 577.4 270.4 578.4 267.2C583 252.5 592.5 238.4 608.2 222.7C615.3 215.6 620.9 209.7 620.8 209.6C619.2 208.6 608.6 206 606.3 206C604.6 206 601.6 205.3 599.7 204.5C597.7 203.7 594.3 203 592.1 203C587.8 203 584.7 200.8 585.6 198.5C586 197.7 586.4 197 586.6 197C586.8 197 601.9 194.7 620.1 192C638.3 189.2 653.4 187 653.5 187C653.6 187 653.5 184.9 653.3 182.2C652.8 177.3 648.9 170.2 644.7 166.2C640 161.8 619.6 153.9 613.5 154.1C612.4 154.1 609.1 155 606.2 156Z" />
		<path id="Layer" class="shp0" d="M759.5 192.7C755.1 193.7 737 201.3 737.2 202C737.4 202.4 746.1 209.9 756.5 218.6C767 227.3 775.8 234.9 776.2 235.4C777.8 237.7 771.6 236.9 742.5 231C710.9 224.7 707.8 224.3 706.3 226.2C705.8 226.9 703 234.9 700.1 244C692.8 266.6 693.2 265.6 691.6 263.9C690.8 263.1 687.6 254.6 684.5 245C681.3 235.4 678.5 227.1 678.3 226.7C678 226.2 676.4 227.1 674.6 228.7C672.9 230.3 669 233.4 666 235.5C663 237.6 656.7 242.8 652 247C647.3 251.2 641.7 256 639.5 257.7C629 265.7 616.1 275 615.6 275C614.2 275 615.4 271.8 621.5 258.2C625.8 248.6 629.2 242.4 631.9 239.5C636.2 234.9 639.3 229.5 638.8 227.8C638.3 226.3 624.7 237.4 616.9 245.7C600 263.7 594.2 278.9 595.3 303C596 320.5 599.9 331.8 608.8 342.7C611.4 345.8 615.6 351.9 618.1 356.3C622.4 363.9 623 364.5 631.6 369.4C636.5 372.3 642.6 376.2 645.2 378.2C650.5 382.3 656.9 384.9 670.9 388.7C684.8 392.5 708 393.1 722.9 390C736.7 387.2 743.2 384.9 757.5 378C779 367.5 796.6 354.2 807.5 340C812.6 333.3 825.9 309.2 829.7 299.5C832.2 293.1 832.5 291.4 832.4 280C832.3 267.3 830.7 250.8 828.9 243.5C824.2 224.4 810.9 206.4 796.8 200.1C782 193.4 768.2 190.6 759.5 192.7Z" />
		<path id="Layer" class="shp0" d="M428 229.4C428 229.7 433.2 232.7 439.5 236.2C450.2 242 453.5 245 449.3 245C448.3 245 436.3 245.7 422.5 246.5C408.8 247.3 395.8 248 393.8 248C391.7 248 390 248.3 390 248.7C390 249.2 397.5 253.5 406.5 258.4C415.6 263.3 423 267.9 423 268.6C423 269.4 419 271.2 413.3 272.9C407.9 274.6 387.2 281 367.3 287.2C347.3 293.4 331 298.8 331 299.2C331 299.6 337.5 300 345.5 300C353.7 300 360 300.4 360 300.9C360 301.4 351.2 309.2 340.4 318.2L320.8 334.5L324.6 335.3C326.8 335.7 333.6 336 339.8 335.8L351 335.5L355.1 330.7C357.3 328.1 361.1 324.7 363.4 323.1C365.7 321.5 370 317.8 373 314.8C378.2 309.7 379.1 309.3 390 306.2C407 301.4 415.9 301.7 445.1 308.3C451.4 309.7 457.7 311.8 460.6 313.5C467.8 317.7 495.5 345.9 501.9 355.5C507.6 364 518.6 386 524 399.8C525.8 404.3 527.5 407.9 527.7 407.6C529.4 406 515.5 361.5 505.5 336.2C488.5 293 476.8 269.9 461.6 249.2C457.5 243.7 447 235.5 438.5 231.3C436.3 230.2 428 228.7 428 229.4Z" />
		<path id="Layer" class="shp0" d="M262.3 322.4C253 327.1 253 327.3 259.1 331.4C262.1 333.4 265.1 335 265.9 335C266.7 335 270.1 336.6 273.6 338.5C277 340.4 280.7 342 281.8 342C282.9 342 286.4 340 289.6 337.5C292.9 335.1 299.7 330 304.9 326.3L314.3 319.5L306.4 319.2C299.4 318.9 298.4 319.1 297.1 320.9C295.4 323.6 291.1 323.6 283.5 321C275.3 318.2 269.8 318.5 262.3 322.4Z" />
		<path id="Layer" class="shp0" d="M423 348.2L417.5 351.4L422 352.1C427.2 353 437 350.7 437 348.7C437 347.5 431.7 345 429.4 345C428.9 345 426 346.5 423 348.2Z" />
		<path id="Layer" class="shp0" d="M825 372.5C821.3 374.8 818.2 375.9 815.5 376C813.3 376 810.6 376.7 809.6 377.5C808.5 378.3 805.8 379 803.5 379C800.2 379 798.2 379.8 793.9 383C790.9 385.3 787.5 388.4 786.2 390C784.7 391.9 782.6 393.1 780.2 393.5C778.2 393.9 769.5 397.5 760.9 401.6C748.3 407.6 742.9 409.6 732.4 412C714.8 416 711.1 416.3 691.5 415.1C672.9 413.9 669.4 413.1 655.1 406.6C649.8 404.2 642.5 401.3 638.7 400C635 398.8 630 396.4 627.5 394.7C625.1 392.9 620.4 389.6 617.2 387.3C611.7 383.4 607.2 378.9 604.2 374.4C603.2 372.8 603.1 373.5 603.6 378.5C604.5 386.5 606 392.3 611 406.5C616.5 422.4 617.7 431.9 616.2 446.1C615.5 452.1 614.4 459.3 613.8 462C613.2 464.8 612.9 467.2 613.2 467.6C614.3 468.6 621.4 464.9 626.8 460.5C630.2 457.7 633.5 455.9 635.8 455.5C637.8 455.2 643.6 454.2 648.5 453.3C659.1 451.3 663.1 451.4 670.1 453.4C673 454.3 677.2 455 679.5 455C685.8 455 699.2 460.1 705.5 465L711 469.2L717.9 465.1C721.7 462.9 729.5 456.5 735.3 451C743.1 443.6 747.5 440.2 752.2 438.1C761.7 433.8 771.5 431.2 781.5 430.5L790.5 429.8L795.1 433.4C798.1 435.6 800.3 438.4 801.4 441.1C803 445.1 803 445.3 800.5 449.6C799.1 452 798.2 454 798.6 454C800.3 454 862.2 437.7 869.1 435.4C876.8 432.9 886 427.8 886 426.1C886 424.9 879.7 425.8 875.1 427.6C870.4 429.6 865.1 429.3 860.8 427C858.8 426 854.5 424.4 851.3 423.6C835.1 419.4 831.6 418.3 831.2 417.2C831 416.6 833.3 414.9 836.2 413.4C839.1 411.9 842.9 409.7 844.6 408.4C846.3 407.1 848.2 406 848.8 406C849.5 406 850 405.5 850 405C850 404.4 840.9 404 824.6 404C810.5 404 798.9 403.6 798.6 403.1C797.8 401.8 806.4 390.6 811.3 386.6C813.6 384.7 818.2 381.6 821.5 379.7C828.8 375.4 835.5 369 832.4 369.1C831.4 369.1 828 370.7 825 372.5Z" />
		<path id="Layer" class="shp0" d="M232.5 426.5C229.2 427.2 223 429.2 218.8 430.9C214.6 432.6 206.9 435.1 201.8 436.5C196.7 438 189.8 440.6 186.5 442.4C183.2 444.3 178.2 446.5 175.4 447.4C171.1 448.8 168 451.2 156.2 462.8C140.9 477.8 139 480.8 133.6 497.7C132.2 502.3 129.6 508.8 127.9 512.2C123.2 521.4 122 528.4 121.3 548.7C120.8 563.4 121 568.1 122.3 573.2C123.2 576.7 124.2 582.8 124.5 586.8C124.8 591.8 126.1 596.6 128.4 602.3C130.3 606.8 132.6 613.6 133.5 617.2C134.8 622.4 136.4 625.3 140.4 630.2C143.2 633.7 147.5 639.9 149.9 644C162.2 665 167.2 670.1 186.3 681.7C192.4 685.4 203.1 692.4 209.9 697.3C231.8 712.8 238.9 715.4 282.8 723.1C306.1 727.2 307.3 727.3 313.8 726.1C317.5 725.4 327.3 724.4 335.5 724C353.2 723 355.7 722.5 373.2 716.6C380.5 714.1 389 711.4 392.1 710.6C395.2 709.7 401 706.9 405.1 704.2C409.2 701.6 417.6 696.4 423.7 692.6C445.7 679.5 454.9 671.4 468.2 653.5C481.8 635.3 488.8 622.5 494.3 605.5C499.2 590.5 500.3 582.1 499.7 565.6C499 548.8 495 526.7 491.2 519.4C487.9 512.9 478.2 501.3 468.2 491.8C455.2 479.5 452 478.1 422.1 472.6C408.6 470.1 397.5 468.2 397.3 468.3C397.2 468.5 402.2 483.4 408.5 501.4C419.8 533.4 420.8 537 419.2 537C418.8 537 403.4 523.4 385.1 506.7C366.7 490.1 350.4 475.4 348.8 474.1L345.8 471.7L325.6 491.9C308.1 509.4 303 513.8 303 511.4C303 510.8 311.7 464 312.6 459.7L313.2 457L298 457C286.5 457 282 457.4 279.2 458.6C277.2 459.4 272.1 460.6 268 461C263.9 461.5 258.5 462.4 256 462.9C253.5 463.5 248.1 463.9 244 464C239.9 464 230.9 464.7 224 465.5C217.1 466.3 209.9 467 208 467C204.6 467 204.6 467 206.5 465.1C207.6 464.1 213.7 460 220 456.2C226.3 452.3 233 448.2 234.8 447.1C236.6 445.9 239.1 445 240.4 445C241.6 445 246.3 442.6 250.7 439.7C264.9 430.6 272 425.7 272 425.4C272 424.4 237.8 425.3 232.5 426.5Z" />
		<path id="Layer" class="shp0" d="M298.6 437.5C297.3 438.5 294.3 439 290.1 439C286.5 439 282.8 439.5 282 440C281 440.7 283 441 288.6 441C295.4 441 297 440.7 298.4 439.1C299.4 438 301.2 436.9 302.4 436.7C304.3 436.3 304.3 436.3 302.5 436.2C301.4 436.1 299.6 436.7 298.6 437.5Z" />
		<path id="Layer" class="shp0" d="M853.7 456.5C846.7 462.9 841 468.5 841 469.1C841 469.6 845.4 470 850.9 470L860.9 470L865.5 466C868 463.8 870.5 462 871 462C873.2 462 873 457.9 870.6 454.8C869.3 453 867.8 450 867.3 448.2L866.5 444.8L853.7 456.5Z" />
		<path id="Layer" class="shp0" d="M769.8 448.9C758 452.7 742.1 463.9 728.2 478.2L722.9 483.7L724.9 487.1C728 492.4 729.2 502.6 728 512.7C727.4 517.4 727.1 521.4 727.3 521.6C727.5 521.8 729.4 520.7 731.6 519.1C733.7 517.5 741 513.3 747.8 509.7C754.5 506.1 764 500.3 768.8 496.8C773.6 493.2 778.9 489.4 780.5 488.2C784.3 485.7 796.9 480.5 797.6 481.3C798.7 482.4 787.2 504.6 784 507.5C781.4 510 777 516.7 777 518.3C777 518.6 787.5 519 800.3 519.3C819.9 519.7 824.8 520.1 832 522C843.5 525 856.9 531.5 866.5 538.9C873.9 544.5 880 547.9 880 546.2C880 545.8 875.9 540.8 871 535.1C866 529.3 862 524.3 862 523.8C862 523.4 864.8 523 868.3 523C872.8 523 875.3 522.4 877.5 521C879.2 519.9 882 519 883.8 519C888.3 519 887 517.3 881.7 516.5C879.4 516.1 874.5 514.5 870.8 512.9C867.2 511.3 863.1 510 861.8 510C860.5 510 858.5 509.3 857.4 508.5C856.4 507.7 854 507 852.3 507C848 507 831 500.2 831 498.5C831 497.7 836.8 494.9 844.5 491.8C851.9 488.9 858 486.2 858 485.7C858 485.3 845.4 485 830 485C814.2 485 802 484.6 802 484.1C802 483.6 806.5 479.3 812.1 474.5C817.6 469.7 821.9 465.6 821.7 465.4C821.5 465.2 804.7 467.9 784.3 471.5C763.9 475.1 746.9 478 746.5 478C744 478 748.6 473.5 763.3 461.6C772.5 454 780 447.7 780 447.4C780 446.5 775.2 447.2 769.8 448.9Z" />
		<path id="Layer" class="shp0" d="M646.5 469.4C640.6 471.3 634.7 474.5 623.5 481.8C609.9 490.8 605.5 495.3 604.7 501.3C604.3 503.9 602.5 509.1 600.5 513C598.6 516.8 597 520.4 597 521C597 522.6 605.3 516.6 614.5 508.5C636.5 489 648.3 484 672 484C684.8 484 689.4 485.5 696.6 492.2C703 498.1 706.2 504.8 706.8 513.6C707.2 519.9 706.8 522.1 703.5 531.9C701.5 538.1 700 543.4 700.3 543.6C701 544.3 708.8 528 710.6 522.1C712.4 516.4 712.4 509.1 710.5 501.2C708.7 493.4 707.1 490.4 702 484.5C699.8 482 698 479.3 698 478.6C698 477.8 696.5 476.7 694.8 476.1C693 475.4 689.8 474 687.7 472.9C679.4 468.5 655.7 466.5 646.5 469.4Z" />
		<path id="Layer" class="shp0" d="M661.7 500C659.1 500.5 653.5 502.9 649.2 505.3C645 507.8 638.9 511.1 635.8 512.7C630.4 515.4 614 528.5 614 530.1C614 530.5 615.9 531.1 618.3 531.5C620.6 531.9 626.4 533.9 631.1 536.1L639.7 540L662.2 540L684.8 540L686.8 535.2C689.5 528.9 691 521.2 691 514C691 508.7 690.7 507.9 687.9 505.6C686.2 504.1 683.4 502.2 681.7 501.3C678 499.4 668.4 498.8 661.7 500Z" />
		<path id="Layer" class="shp0" d="M727.7 541.7C723.7 545.5 719.1 549.5 717.5 550.6C715.8 551.8 714.7 553 715.1 553.4C715.9 554.2 728.8 545.3 730 543C730.6 541.9 732.5 540.4 734.3 539.6C736.1 538.8 738.4 537.5 739.5 536.6C741.4 535.1 741.4 535.1 738.2 535C735.5 535 733.6 536.2 727.7 541.7Z" />
		<path id="Layer" class="shp0" d="M767.7 542.1C765 542.5 762.6 543.1 762.4 543.3C762.1 543.5 764.1 544.3 766.7 544.9C774.6 546.9 790.9 553.8 800 559C804.7 561.7 811.9 565.1 816 566.6C825.7 570 829.4 572 828.4 573C826.6 574.7 804.5 576.1 772 576.6C753.6 576.9 738 577.3 737.3 577.5C736.5 577.8 738.9 586.1 744.6 603.2C749.2 617.1 753 628.6 753 628.7C753 630.8 729.2 615.3 713.9 603.4C710.9 601 707.9 599 707.2 599C706.6 599 704.6 601.1 702.9 603.7C694.6 615.9 655.7 670.1 654.8 670.6C654.3 670.9 653.6 671 653.3 670.6C652.8 670.2 661.2 608.4 662.5 602.2C662.9 600.8 662.6 600 661.7 600C659.1 600 622.9 615.8 619.4 618.5C615 621.9 610.1 629.4 603.9 642.4C589.3 673 587.7 692.7 596.6 728C600.8 744.7 615.4 770.9 629.3 787C636.7 795.6 640.6 798.4 658 808.2C683.8 822.7 693.7 826.8 711 830.6C723.7 833.4 754.3 833.2 770 830.2C808.1 823.1 833 808.8 863.2 777.1C887.5 751.5 894.4 738.3 904.8 697.5C911.3 672 911.8 667.2 909.1 650.3C905.6 627.6 900.6 612 892.3 597.5C887 588.2 871.9 566 869.6 564.1C868.8 563.4 864.1 560.7 859.3 558.1C854.5 555.5 848.4 552.1 845.8 550.6C839.6 547 830.1 544.4 818.8 543.1C806.4 541.7 773.7 541.1 767.7 542.1Z" />
		<path id="Layer" class="shp0" d="M644.4 556.9C644.8 557.4 647.1 557.8 649.6 557.7C652.9 557.7 654.7 558.2 655.5 559.3C656.5 560.8 658.9 561 672.2 561C682.1 561 688 561.4 688.7 562.1C689.5 562.9 690.1 562.7 690.9 561.2C691.9 559.4 691.5 559 687.3 557.6C680.4 555.2 668.9 555.5 666 558C663.1 560.5 660.3 560.5 656.5 558C653.5 556 643.3 555.1 644.4 556.9Z" />
		<path id="Layer" class="shp0" d="M706.3 560.2C704.7 562 702.5 564.9 701.5 566.6C700.6 568.2 697.8 570.9 695.5 572.4C690.6 575.4 684.3 582 683.1 585.3C682.1 587.8 679.6 608.9 680.2 609.5C680.4 609.7 685.4 602.3 691.4 592.9C697.3 583.6 702.6 576 703.1 576C703.6 576 707.8 578.5 712.3 581.5C716.8 584.5 720.6 586.7 720.8 586.2C720.9 585.8 719.2 581.2 717 576L712.9 566.7L716.2 563.7L719.4 560.7L740.4 561.4C754.2 561.8 762 561.7 763 561.1C764 560.3 756.6 560 738.8 560C713.6 560 709.5 559.7 710.6 557.9C711.9 555.7 709.1 557.3 706.3 560.2Z" />
		<path id="Layer" class="shp0" d="M679.5 573C675.7 576.8 672.9 580 673.3 580C675.4 580 680.1 576.7 682.3 573.8C684.8 570.5 687.3 566 686.8 566C686.6 566 683.3 569.1 679.5 573Z" />
		<path id="Layer" class="shp0" d="M456.5 697.8C451 702.4 443.8 707.5 440.5 709.1C437.2 710.7 433.9 712.8 433.3 713.7C429.8 718.3 433.6 731.9 442.2 745.8C452 761.5 457.5 769.9 458.1 769.9C458.8 770 460.8 749 462 727C462.5 717.8 463.9 706.3 465 701C466.1 695.8 466.9 691 466.8 690.4C466.6 689.8 462 693.1 456.5 697.8Z" />
		<path id="Layer" class="shp0" d="M178.2 713.3C171.7 719.9 166.4 735.6 168.6 741.4C169.1 742.7 170.1 742.9 173.4 742.3C175.6 742 177.8 741.1 178.3 740.4C178.7 739.7 181.5 737.9 184.5 736.4C191.4 732.9 194.6 733.6 197.5 739.5C198.6 741.8 200.8 745.3 202.4 747.3C204.9 750.5 205.3 751.9 205.4 758C205.4 761.9 205.7 765 205.9 765C206.1 765 208.8 763.2 211.7 760.9C219.5 755.1 220 755.6 220 769.7L220 781.5L223.4 786.3C225.2 788.9 227.3 792.4 228 794C228.7 795.7 229.6 797 229.9 797C231.2 797 234.7 792.6 235.5 790.2C236 788.3 236.7 788 238.3 788.4C245.4 790.4 246 790.4 246 787.7C246 786.2 246.8 784.7 247.8 784.1C249.4 783.3 269 746.4 269 744.3C269 743.8 266.1 742.9 262.7 742.3C253.1 740.4 216.6 727.4 207.5 722.6C203.1 720.3 197.4 717.6 194.9 716.7C192.4 715.7 189.1 713.6 187.5 712C185.9 710.3 184.1 709 183.5 709C182.9 709 180.5 710.9 178.2 713.3Z" />
		<path id="Layer" class="shp0" d="M401 729.7C392.4 733.7 370.5 740.6 359.5 742.8C344 746 331.9 747 308.8 747C297.1 747 287 747.4 286.4 747.8C285.8 748.2 283.9 751.4 282.2 755C280.5 758.6 275.5 767.5 271.2 774.7C263.7 787.2 261.1 793 263.2 793C263.7 793 266.3 791.9 269 790.5C271.7 789.1 275.5 788 277.5 788C280 788 287.4 784.8 303 777C327.3 764.8 330.3 764 334.5 768.6C337.5 771.8 337.9 778.8 335.5 786.6C333.3 793.9 333.4 794 339.1 794C346.4 794 347.7 795 349.1 802C349.7 805.3 350.6 808 351 808C352.5 808 358 805.8 358 805.2C358 804.8 354.4 798.7 350 791.6C345.1 783.7 342.4 778.4 343.1 778C343.6 777.6 359.2 780.3 377.5 784C395.9 787.7 411.1 790.5 411.3 790.3C411.5 790.1 410.4 783.8 408.9 776.2C405.9 761.7 405.4 757 406.9 757C407.4 757 414.8 762.8 423.4 770C432 777.1 439.3 783 439.7 783C440 783 439.6 782.1 438.9 781.1C430.5 769.2 423.4 757.8 421.3 753.2C420 750.1 416.9 743.5 414.4 738.7C412 733.9 410 729.2 410 728.4C410 726.4 407.4 726.8 401 729.7Z" />
		<path id="Layer" class="shp0" d="M589.5 791.8C582.3 794.9 581.4 795.8 577.2 804.7C573.8 811.9 572.7 815.9 571 826.5C569.7 834.7 568.1 841.3 566.5 844.4C564.8 848 564.4 849.9 565.1 851.1C565.6 852.1 566 854.6 566 856.7L566.1 860.5L574.3 851.9C580.3 845.7 583.8 841 587.2 834.4C594.1 821.1 596 813.9 596 800.9C596 788.9 596.1 789 589.5 791.8Z" />
		<path id="Layer" class="shp0" d="M429.3 798.5C430.8 807.5 431.2 812.8 430.3 813.3C429.8 813.6 417.8 811 403.6 807.4C389.4 803.8 377.6 801.1 377.4 801.3C377.2 801.5 382 808.7 388 817.3C394.1 825.9 399 833.4 399 834C399 834.7 390.4 835 373.6 835C359.6 835 347.9 835.4 347.6 835.9C347.3 836.4 348.8 838 351 839.5C356.2 843.1 365.8 853.2 367 856.5C367.5 857.9 368 861.3 368 864C368 868.6 367.7 869.1 364.3 871.5C361.5 873.4 359.2 874 355.4 874C351.8 874 349.5 874.6 347.7 876C346.3 877.1 344.4 878 343.3 878C341.3 878 338.3 879.6 339 880.3C339.3 880.6 352.7 882.8 368.8 885.4C385 887.9 398.8 890.3 399.5 890.7C400.2 891.2 406.7 896.7 414 903C424.9 912.5 427.1 914.8 426.7 916.7C426.3 918.7 427.3 919.5 435.4 923.3C440.4 925.7 452.9 932.9 463.3 939.4C482.6 951.4 485 952.8 485 951.4C485 951 482.6 943.2 479.6 934.1C473.3 914.8 471.7 907.8 469.5 888C468.6 880 466.8 866.7 465.4 858.5C464.1 850.2 462.7 839 462.4 833.5C462.1 828 461.7 822.5 461.4 821.3C461.1 819.8 456.2 815.4 447.4 808.8C439.9 803.1 432.6 797.6 431.2 796.5L428.7 794.6L429.3 798.5Z" />
		<path id="Layer" class="shp0" d="M615 800.6C615 801.5 613.7 806.5 612 811.8C610.4 817.2 608.4 825.4 607.6 830.2C606 839.8 603.5 845.3 598 852C596 854.5 593.5 857.9 592.6 859.7C590.8 863.3 577.3 872.8 572.8 873.7C571.2 874 570 874.5 570 874.9C570.1 878 577.2 898.7 578.6 899.7C581.2 901.6 590.3 901.3 602 899C607.6 897.9 612.9 897 613.8 897C614.7 897 618.1 895.6 621.3 893.9C624.5 892.3 632.6 889.1 639.3 887C655.1 881.9 661.2 878.2 674 865.5C679.8 859.9 686 854.5 687.8 853.6C690.4 852.2 691 851.4 691 848.7C691 845.8 690.4 845.2 685.1 842.2C681.8 840.5 677.8 839 676.1 839C674.4 839 669.2 836.9 664.3 834.4C659.4 831.8 652 828 647.8 825.9C641.6 822.8 637.6 819.7 628.1 810.5C621.6 804.2 616 799 615.6 799C615.3 799 615 799.7 615 800.6Z" />
		<path id="Layer" class="shp0" d="M210 832.9C213 835.6 215.2 838.1 214.8 838.5C214.5 838.9 199.6 842.1 181.9 845.6C164.1 849.2 149.3 852.4 149 852.7C148.7 853 149 853.5 149.5 853.7C155.7 856.3 186.5 872.7 186.4 873.5C186.4 874 166 885.5 141.1 898.9C116.2 912.3 96.1 923.4 96.2 923.6C96.4 923.8 111.2 921.2 129 918C146.9 914.7 162.6 912 163.9 912C166.9 912 166.8 912.1 156.8 928.9C152.4 936.4 148.5 942.9 148.2 943.3C147.5 944.6 150.6 942.9 170.1 930.8C179.8 924.9 188.6 920 189.7 920C192.2 920 199.7 928 207.9 939.2C211.3 944.1 214.5 948 214.9 948C215.4 948 217.7 943.2 220.1 937.4C222.5 931.6 225 926.6 225.6 926.4C226.2 926.1 231.8 928.9 238 932.4C244.3 936 249.8 938.6 250.2 938.2C250.5 937.8 252.9 931.9 255.5 925C258 918.1 260.8 912 261.5 911.4C262.7 910.5 261.9 909.9 257.5 908.2C252.7 906.3 250.7 906.1 240.7 906.7C230.1 907.2 229.2 907.1 224 904.7C219.2 902.6 216.1 902.1 201 901.1C181 899.7 177.8 899.2 178.3 897.7C179 895.6 212.5 887 220.2 887C222.6 887 226.5 886.1 228.9 885C232.7 883.2 235.4 883 251.6 883C264.8 883 270 882.7 270 881.9C270 878.7 262.4 865.4 258.4 861.6C255.3 858.6 253.4 855.6 252 851.4C249.5 844.2 243.2 837.4 234.3 832.5C227.2 828.4 226.1 828.3 222.7 831C219.4 833.6 218.2 833.5 217.8 830.7C217.5 828.7 216.9 828.5 211 828.2L204.5 828L210 832.9Z" />
		<path id="Layer" class="shp0" d="M709.2 854.6C708 855.4 707 856.9 707 858C707 859 704.5 862.1 701.4 864.9C697.3 868.7 696 870.5 696.5 871.8C696.8 872.7 697.1 878.2 697.1 884.1L697 894.6L700.6 898.8C704.3 903.1 706 904 706 901.6C706 900.8 707.6 898.8 709.5 897.2C716.8 890.7 727.4 892.4 733.3 900.9L736.5 905.5L736.8 893.7C737.1 878.5 737.6 878.2 747.8 888.2C758.3 898.5 762 900.3 762 895.2C762 891 763.7 890 770.4 890C775.6 890 777.3 890.6 782 893.5C785 895.4 787.8 897 788.3 897C789.8 897 776.3 884.8 771.4 881.8C766.5 878.7 762.7 872.4 763.2 868.2C763.5 865.7 763.9 865.5 769.5 864.9C772.8 864.6 776.8 863.8 778.3 863C780.7 861.8 781.8 861.8 786.3 863.3C789.2 864.2 793.7 865.1 796.4 865.4C799 865.7 803.5 867.2 806.4 868.7C811.1 871.3 814.2 874.2 824.9 886C827.1 888.5 829 890 829 889.3C829 888.6 825.1 883.7 820.3 878.4C811.9 869.2 811 868.5 798.8 862.4C786.3 856.1 785.9 856 778.1 856C773.7 856 769.8 855.5 769.5 855C768.6 853.5 762.9 853.8 758 855.5C751.3 857.9 726.2 857.5 719 855C712.3 852.6 712 852.6 709.2 854.6Z" />
		<path id="Layer" class="shp0" d="M366.8 959.8C355.4 981 351 992.4 351 1001.5L351 1004.5L353.6 1000.2C355 997.9 356.7 996 357.4 996C358.1 996 360.6 994.6 363 992.9C365.3 991.2 367.6 990.2 368 990.7C368.5 991.1 370.3 994.9 371.9 999.2C374.8 1006.4 375 1007.7 375 1019.9C375 1027.1 375.2 1033 375.5 1033C375.8 1033 377.8 1031.9 380 1030.5C383.5 1028.3 384 1027.5 384 1024.3C384 1021 384.8 1019.8 390.5 1014.2C394.4 1010.4 397.7 1008 398.7 1008.2C399.9 1008.4 401.1 1010.9 402.5 1015.5C403.7 1019.4 405.2 1023.4 405.8 1024.5C408.3 1029.3 411 1037.1 411 1039.9C411 1041.5 412 1044.1 413.4 1045.7C416.2 1049 421.2 1058.9 423 1064.5C424.6 1069.5 431 1082 432 1082C433.1 1082 434 1075.5 434 1067C434.1 1054.6 437.7 1034.2 440.5 1030.4C441.8 1028.6 442.2 1028.8 447.5 1034C450.6 1037 454.5 1042 456.2 1045C459 1050 469.4 1062 471 1062C471.4 1062 472 1052.5 472.4 1040.9C473 1024.6 472.8 1019.5 471.9 1018.3C471.2 1017.5 467.1 1015.1 462.9 1012.9C456.8 1009.9 454.7 1008.2 453 1005.2C451.8 1003.1 449.5 1000.5 447.9 999.6C446.3 998.6 443.8 996.1 442.5 993.9C440.6 991.1 438.1 989.1 432.8 986.4C428.9 984.4 421.6 979.4 416.6 975.2C411.6 970.9 405 965.7 402 963.5C399 961.4 394.3 957.7 391.5 955.3C388.8 952.9 386.1 951 385.5 951C385 951 382.2 949.9 379.3 948.6L374.1 946.2L366.8 959.8Z" />
		<path id="Layer" class="shp0" d="M679 960.8C667.2 968.8 661.1 973.8 658.9 977.2C657.4 979.4 653.5 984.2 650.3 987.9C647.1 991.5 643.5 995.8 642.3 997.5C636.4 1006 624.4 1063.9 626.4 1074.4L627.2 1078.3L639.7 1065.9C654.8 1050.9 661.3 1042.1 664 1032.9C665.1 1029.2 667.8 1021.9 669.9 1016.8C675.5 1003.5 676.7 998.8 679.5 979.6C680.9 970.2 682.3 961.7 682.6 960.7C683.3 958.6 682.2 958.6 679 960.8Z" />
	</g>
</svg>